<?xml version="1.0" standalone="no"?>
<!DOCTYPE svg PUBLIC "-//W3C//DTD SVG 20010904//EN"
 "http://www.w3.org/TR/2001/REC-SVG-20010904/DTD/svg10.dtd">
<svg version="1.0" xmlns="http://www.w3.org/2000/svg"
 width="512.000000pt" height="512.000000pt" viewBox="0 0 512.000000 512.000000"
 preserveAspectRatio="xMidYMid meet">
<metadata>
Created by potrace 1.11, written by Peter Selinger 2001-2013
</metadata>
<g transform="translate(0.000000,512.000000) scale(0.100000,-0.100000)"
fill="#000000" stroke="none">
<path d="M2330 4874 c-176 -48 -314 -165 -392 -330 -47 -100 -58 -187 -58
-460 l0 -245 -31 36 c-36 40 -84 48 -112 17 -76 -83 -63 -349 24 -501 30 -52
83 -95 106 -86 8 2 14 -8 17 -28 2 -18 10 -61 17 -97 7 -36 15 -159 16 -277
l4 -212 137 -127 c135 -126 247 -214 390 -309 39 -26 72 -52 72 -56 0 -4 -51
-48 -114 -96 -63 -48 -115 -93 -115 -99 -1 -6 20 -56 45 -110 l47 -99 -13
-160 c-7 -88 -16 -205 -21 -260 -16 -199 -7 -875 17 -1256 l7 -109 183 0 182
0 6 62 c14 168 46 883 46 1048 0 160 -49 505 -90 635 -8 25 -4 50 25 135 19
57 35 111 35 120 0 9 -48 51 -110 96 -60 43 -110 84 -110 89 0 6 56 47 125 90
184 117 243 164 351 280 53 58 101 102 107 98 7 -4 8 1 3 13 -5 13 -4 16 3 9
16 -16 51 -188 58 -285 7 -101 -4 -146 -76 -313 -45 -103 -49 -121 -55 -217
-4 -58 -11 -148 -16 -200 -9 -99 -12 -124 -60 -670 -16 -184 -34 -382 -39
-440 -6 -58 -15 -161 -21 -230 -6 -69 -15 -163 -21 -210 -6 -57 -5 -88 2 -95
7 -7 357 -9 1107 -6 603 2 1098 5 1100 6 13 12 -218 1510 -254 1649 -18 69
-54 144 -80 167 -11 9 -91 46 -179 82 -358 146 -703 302 -854 387 -48 27 -203
126 -345 220 l-257 170 0 130 c0 124 1 133 30 192 33 69 61 165 61 213 0 50
10 69 43 85 126 59 189 462 90 572 -21 24 -64 23 -96 -2 l-25 -20 -4 263 c-4
251 -6 265 -31 343 -59 180 -197 323 -370 385 -54 19 -86 22 -257 25 -152 3
-207 0 -250 -12z"/>
<path d="M1815 2591 c-223 -168 -485 -338 -637 -413 -121 -60 -353 -154 -603
-243 -104 -38 -202 -77 -217 -87 -48 -33 -84 -128 -117 -303 -58 -303 -231
-1447 -231 -1521 l0 -24 378 0 c208 0 696 3 1083 7 l704 6 -17 186 c-9 102
-26 285 -38 406 -46 484 -102 1099 -114 1261 -12 151 -17 178 -44 240 -53 120
-63 157 -69 244 -5 77 4 185 23 278 4 17 3 32 -2 31 -5 0 -49 -31 -99 -68z"/>
</g>
</svg>
